<?xml version="1.0" encoding="UTF-8" standalone="no"?>
<!DOCTYPE svg PUBLIC "-//W3C//DTD SVG 1.1//EN" "http://www.w3.org/Graphics/SVG/1.1/DTD/svg11.dtd">
<svg width="100%" height="100%" viewBox="0 0 42 42" version="1.1" xmlns="http://www.w3.org/2000/svg" xmlns:xlink="http://www.w3.org/1999/xlink" xml:space="preserve" xmlns:serif="http://www.serif.com/" style="fill-rule:evenodd;clip-rule:evenodd;stroke-linejoin:round;stroke-miterlimit:2;">
    <g transform="matrix(1,0,0,1,-799,-523)">
        <g transform="matrix(0.906066,0,0,0.906066,-1945.03,-308.555)">
            <g transform="matrix(1.10367,0,0,1.10367,2146.67,340.543)">
                <path d="M800,544.105C800,538.698 802.148,533.513 805.971,529.69C809.794,525.867 814.98,523.719 820.386,523.719C825.793,523.719 830.979,525.867 834.802,529.69C838.625,533.513 840.773,538.698 840.773,544.105C840.773,549.512 838.625,554.698 834.802,558.521C830.979,562.344 825.793,564.492 820.386,564.492C814.98,564.492 809.794,562.344 805.971,558.521C802.148,554.698 800,549.512 800,544.105ZM820.387,561.943L820.386,561.943L820.387,561.943ZM833.712,555.964L833.676,556.004L833.684,555.996L833.712,555.964ZM833.717,555.958C836.613,552.702 838.225,548.487 838.225,544.105C838.225,539.374 836.345,534.837 833,531.492C829.655,528.147 825.117,526.267 820.386,526.267C815.656,526.267 811.118,528.147 807.773,531.492C804.428,534.837 802.548,539.374 802.548,544.105C802.548,548.404 804.1,552.543 806.894,555.774C806.743,555.599 806.596,555.422 806.452,555.241C808.264,552.324 812.244,549.202 820.386,549.202C828.528,549.202 832.511,552.326 834.32,555.241C834.126,555.486 833.924,555.725 833.717,555.958ZM806.939,555.825L806.948,555.836L806.939,555.825ZM820.386,546.654C822.414,546.654 824.359,545.848 825.792,544.414C827.226,542.981 828.031,541.036 828.031,539.009C828.031,536.981 827.226,535.037 825.792,533.603C824.359,532.169 822.414,531.364 820.386,531.364C818.359,531.364 816.414,532.169 814.981,533.603C813.547,535.037 812.742,536.981 812.742,539.009C812.742,541.036 813.547,542.981 814.981,544.414C816.414,545.848 818.359,546.654 820.386,546.654Z" style="fill:white;fill-rule:nonzero;"/>
            </g>
        </g>
    </g>
</svg>
