<?xml version="1.0" encoding="UTF-8" standalone="no"?>
<!DOCTYPE svg PUBLIC "-//W3C//DTD SVG 1.1//EN" "http://www.w3.org/Graphics/SVG/1.1/DTD/svg11.dtd">
<svg width="100%" height="100%" viewBox="0 0 1304 746" version="1.1" xmlns="http://www.w3.org/2000/svg" xmlns:xlink="http://www.w3.org/1999/xlink" xml:space="preserve" xmlns:serif="http://www.serif.com/" style="fill-rule:evenodd;clip-rule:evenodd;stroke-linejoin:round;stroke-miterlimit:2;">
    <g transform="matrix(0.263519,0,0,0.263519,-288.441,-498.783)">
        <path d="M1094.58,2278.81L1431.79,1941.59L1481.39,1941.59L1481.39,1991.19L1144.17,2328.41L1094.58,2328.41L1094.58,2278.81ZM1481.39,2160.59L1313.57,2328.41L1214.37,2328.41L1481.39,2061.39L1481.39,2160.59ZM1481.39,2328.41L1383.76,2328.41L1481.39,2230.78L1481.39,2328.41ZM1094.58,2208.61L1094.58,2109.41L1262.39,1941.59L1361.59,1941.59L1094.58,2208.61ZM1094.58,2039.22L1094.58,1941.59L1192.2,1941.59L1094.58,2039.22Z" style="fill:rgb(252,202,117);"/>
    </g>
    <g transform="matrix(0.263519,0,0,0.263519,17.3561,-396.851)">
        <path d="M1094.58,2278.81L1431.79,1941.59L1481.39,1941.59L1481.39,1991.19L1144.17,2328.41L1094.58,2328.41L1094.58,2278.81ZM1481.39,2160.59L1313.57,2328.41L1214.37,2328.41L1481.39,2061.39L1481.39,2160.59ZM1481.39,2328.41L1383.76,2328.41L1481.39,2230.78L1481.39,2328.41ZM1094.58,2208.61L1094.58,2109.41L1262.39,1941.59L1361.59,1941.59L1094.58,2208.61ZM1094.58,2039.22L1094.58,1941.59L1192.2,1941.59L1094.58,2039.22Z" style="fill:rgb(252,202,117);"/>
    </g>
    <g transform="matrix(0.263519,0,0,0.263519,17.3561,133.197)">
        <path d="M1094.58,2278.81L1431.79,1941.59L1481.39,1941.59L1481.39,1991.19L1144.17,2328.41L1094.58,2328.41L1094.58,2278.81ZM1481.39,2160.59L1313.57,2328.41L1214.37,2328.41L1481.39,2061.39L1481.39,2160.59ZM1481.39,2328.41L1383.76,2328.41L1481.39,2230.78L1481.39,2328.41ZM1094.58,2208.61L1094.58,2109.41L1262.39,1941.59L1361.59,1941.59L1094.58,2208.61ZM1094.58,2039.22L1094.58,1941.59L1192.2,1941.59L1094.58,2039.22Z" style="fill:rgb(252,201,114);"/>
    </g>
    <g transform="matrix(0.263519,0,0,0.263519,119.288,-498.783)">
        <path d="M1094.58,2278.81L1431.79,1941.59L1481.39,1941.59L1481.39,1991.19L1144.17,2328.41L1094.58,2328.41L1094.58,2278.81ZM1481.39,2160.59L1313.57,2328.41L1214.37,2328.41L1481.39,2061.39L1481.39,2160.59ZM1481.39,2328.41L1383.76,2328.41L1481.39,2230.78L1481.39,2328.41ZM1094.58,2208.61L1094.58,2109.41L1262.39,1941.59L1361.59,1941.59L1094.58,2208.61ZM1094.58,2039.22L1094.58,1941.59L1192.2,1941.59L1094.58,2039.22Z" style="fill:rgb(57,21,122);"/>
    </g>
    <g transform="matrix(0.263519,0,0,0.263519,221.221,-396.851)">
        <path d="M1094.58,2278.81L1431.79,1941.59L1481.39,1941.59L1481.39,1991.19L1144.17,2328.41L1094.58,2328.41L1094.58,2278.81ZM1481.39,2160.59L1313.57,2328.41L1214.37,2328.41L1481.39,2061.39L1481.39,2160.59ZM1481.39,2328.41L1383.76,2328.41L1481.39,2230.78L1481.39,2328.41ZM1094.58,2208.61L1094.58,2109.41L1262.39,1941.59L1361.59,1941.59L1094.58,2208.61ZM1094.58,2039.22L1094.58,1941.59L1192.2,1941.59L1094.58,2039.22Z" style="fill:rgb(57,21,122);"/>
    </g>
    <g transform="matrix(0.263519,0,0,0.263519,812.429,-396.851)">
        <path d="M1094.58,2278.81L1431.79,1941.59L1481.39,1941.59L1481.39,1991.19L1144.17,2328.41L1094.58,2328.41L1094.58,2278.81ZM1481.39,2160.59L1313.57,2328.41L1214.37,2328.41L1481.39,2061.39L1481.39,2160.59ZM1481.39,2328.41L1383.76,2328.41L1481.39,2230.78L1481.39,2328.41ZM1094.58,2208.61L1094.58,2109.41L1262.39,1941.59L1361.59,1941.59L1094.58,2208.61ZM1094.58,2039.22L1094.58,1941.59L1192.2,1941.59L1094.58,2039.22Z" style="fill:rgb(57,21,122);"/>
    </g>
    <g transform="matrix(0.263519,0,0,0.263519,710.496,-511.647)">
        <path d="M1094.58,2278.81L1431.79,1941.59L1481.39,1941.59L1481.39,1991.19L1144.17,2328.41L1094.58,2328.41L1094.58,2278.81ZM1481.39,2160.59L1313.57,2328.41L1214.37,2328.41L1481.39,2061.39L1481.39,2160.59ZM1481.39,2328.41L1383.76,2328.41L1481.39,2230.78L1481.39,2328.41ZM1094.58,2208.61L1094.58,2109.41L1262.39,1941.59L1361.59,1941.59L1094.58,2208.61ZM1094.58,2039.22L1094.58,1941.59L1192.2,1941.59L1094.58,2039.22Z" style="fill:rgb(57,21,122);"/>
    </g>
    <g transform="matrix(0.263519,0,0,0.263519,914.361,-294.919)">
        <path d="M1094.58,2278.81L1431.79,1941.59L1481.39,1941.59L1481.39,1991.19L1144.17,2328.41L1094.58,2328.41L1094.58,2278.81ZM1481.39,2160.59L1313.57,2328.41L1214.37,2328.41L1481.39,2061.39L1481.39,2160.59ZM1481.39,2328.41L1383.76,2328.41L1481.39,2230.78L1481.39,2328.41ZM1094.58,2208.61L1094.58,2109.41L1262.39,1941.59L1361.59,1941.59L1094.58,2208.61ZM1094.58,2039.22L1094.58,1941.59L1192.2,1941.59L1094.58,2039.22Z" style="fill:rgb(57,21,122);"/>
    </g>
    <g transform="matrix(0.263519,0,0,0.263519,119.288,31.265)">
        <path d="M1094.58,2278.81L1431.79,1941.59L1481.39,1941.59L1481.39,1991.19L1144.17,2328.41L1094.58,2328.41L1094.58,2278.81ZM1481.39,2160.59L1313.57,2328.41L1214.37,2328.41L1481.39,2061.39L1481.39,2160.59ZM1481.39,2328.41L1383.76,2328.41L1481.39,2230.78L1481.39,2328.41ZM1094.58,2208.61L1094.58,2109.41L1262.39,1941.59L1361.59,1941.59L1094.58,2208.61ZM1094.58,2039.22L1094.58,1941.59L1192.2,1941.59L1094.58,2039.22Z" style="fill:rgb(57,21,122);"/>
    </g>
    <g transform="matrix(0.263519,0,0,0.263519,914.361,133.197)">
        <path d="M1094.58,2278.81L1431.79,1941.59L1481.39,1941.59L1481.39,1991.19L1144.17,2328.41L1094.58,2328.41L1094.58,2278.81ZM1481.39,2160.59L1313.57,2328.41L1214.37,2328.41L1481.39,2061.39L1481.39,2160.59ZM1481.39,2328.41L1383.76,2328.41L1481.39,2230.78L1481.39,2328.41ZM1094.58,2208.61L1094.58,2109.41L1262.39,1941.59L1361.59,1941.59L1094.58,2208.61ZM1094.58,2039.22L1094.58,1941.59L1192.2,1941.59L1094.58,2039.22Z" style="fill:rgb(57,21,122);"/>
    </g>
    <g transform="matrix(0.263519,0,0,0.263519,812.429,31.265)">
        <path d="M1094.58,2278.81L1431.79,1941.59L1481.39,1941.59L1481.39,1991.19L1144.17,2328.41L1094.58,2328.41L1094.58,2278.81ZM1481.39,2160.59L1313.57,2328.41L1214.37,2328.41L1481.39,2061.39L1481.39,2160.59ZM1481.39,2328.41L1383.76,2328.41L1481.39,2230.78L1481.39,2328.41ZM1094.58,2208.61L1094.58,2109.41L1262.39,1941.59L1361.59,1941.59L1094.58,2208.61ZM1094.58,2039.22L1094.58,1941.59L1192.2,1941.59L1094.58,2039.22Z" style="fill:rgb(57,21,122);"/>
    </g>
    <g transform="matrix(0.263519,0,0,0.263519,914.361,-498.783)">
        <path d="M1094.58,2278.81L1431.79,1941.59L1481.39,1941.59L1481.39,1991.19L1144.17,2328.41L1094.58,2328.41L1094.58,2278.81ZM1481.39,2160.59L1313.57,2328.41L1214.37,2328.41L1481.39,2061.39L1481.39,2160.59ZM1481.39,2328.41L1383.76,2328.41L1481.39,2230.78L1481.39,2328.41ZM1094.58,2208.61L1094.58,2109.41L1262.39,1941.59L1361.59,1941.59L1094.58,2208.61ZM1094.58,2039.22L1094.58,1941.59L1192.2,1941.59L1094.58,2039.22Z" style="fill:rgb(57,21,122);"/>
    </g>
    <g transform="matrix(0.263519,0,0,0.263519,119.288,-294.919)">
        <path d="M1094.58,2278.81L1431.79,1941.59L1481.39,1941.59L1481.39,1991.19L1144.17,2328.41L1094.58,2328.41L1094.58,2278.81ZM1481.39,2160.59L1313.57,2328.41L1214.37,2328.41L1481.39,2061.39L1481.39,2160.59ZM1481.39,2328.41L1383.76,2328.41L1481.39,2230.78L1481.39,2328.41ZM1094.58,2208.61L1094.58,2109.41L1262.39,1941.59L1361.59,1941.59L1094.58,2208.61ZM1094.58,2039.22L1094.58,1941.59L1192.2,1941.59L1094.58,2039.22Z" style="fill:rgb(57,21,122);"/>
    </g>
</svg>
