<?xml version="1.0" encoding="UTF-8" standalone="no"?>
<!DOCTYPE svg PUBLIC "-//W3C//DTD SVG 1.1//EN" "http://www.w3.org/Graphics/SVG/1.1/DTD/svg11.dtd">
<svg width="100%" height="100%" viewBox="0 0 42 42" version="1.1" xmlns="http://www.w3.org/2000/svg" xmlns:xlink="http://www.w3.org/1999/xlink" xml:space="preserve" xmlns:serif="http://www.serif.com/" style="fill-rule:evenodd;clip-rule:evenodd;stroke-linejoin:round;stroke-miterlimit:2;">
    <g transform="matrix(1,0,0,1,-799,-589)">
        <g transform="matrix(0.339775,0,0,0.339775,147.633,227.065)">
            <g transform="matrix(2.94313,0,0,2.94313,-434.502,-668.281)">
                <path d="M826.963,606.074L826.963,598.182C826.963,596.438 826.27,594.765 825.037,593.532C823.803,592.299 822.131,591.606 820.387,591.606C818.643,591.606 816.97,592.299 815.737,593.532C814.503,594.765 813.81,596.438 813.81,598.182L813.81,606.074L811.18,606.074L811.18,598.182C811.18,595.74 812.15,593.399 813.876,591.672C815.603,589.945 817.945,588.975 820.387,588.975C822.828,588.975 825.17,589.945 826.897,591.672C828.623,593.399 829.593,595.74 829.593,598.182L829.593,606.074L829.593,606.074C830.989,606.074 832.327,606.628 833.313,607.615C834.3,608.601 834.854,609.94 834.854,611.335L834.854,624.487C834.854,625.883 834.3,627.221 833.313,628.207C832.327,629.194 830.989,629.748 829.593,629.748L811.18,629.748C809.784,629.748 808.446,629.194 807.46,628.207C806.473,627.221 805.919,625.883 805.919,624.487L805.919,611.335C805.919,609.94 806.473,608.601 807.46,607.615C808.446,606.628 809.784,606.074 811.18,606.074L826.963,606.074Z" style="fill:white;fill-rule:nonzero;"/>
            </g>
        </g>
    </g>
</svg>
